<?xml version="1.0" encoding="UTF-8" standalone="no"?>
<!-- Created with Inkscape (http://www.inkscape.org/) -->
<svg
   xmlns:svg="http://www.w3.org/2000/svg"
   xmlns="http://www.w3.org/2000/svg"
   version="1.0"
   width="351"
   height="270"
   id="svg2">
  <defs
     id="defs4" />
  <path
     d="M 0.28125,0.3125 L 0.28125,269.71875 L 52.09375,269.71875 L 52.09375,235.1875 L 271.71875,235.1875 L 271.71875,269.71875 L 349.71875,269.71875 L 349.71875,0.3125 L 271.8125,0.3125 L 271.8125,29.8125 L 52.1875,29.8125 L 52.1875,0.3125 L 0.28125,0.3125 z M 23.3125,32.75 L 44.875,32.75 C 47.676293,32.75 49.9375,35.011207 49.9375,37.8125 L 49.9375,47.6875 C 49.937502,50.488793 47.676293,52.75 44.875,52.75 L 23.3125,52.75 C 20.511207,52.750002 18.25,50.488793 18.25,47.6875 L 18.25,37.8125 C 18.25,35.011209 20.511207,32.75 23.3125,32.75 z M 304.3125,32.75 L 325.875,32.75 C 328.67631,32.75 330.9375,35.011207 330.9375,37.8125 L 330.9375,47.6875 C 330.93751,50.488793 328.67629,52.75 325.875,52.75 L 304.3125,52.75 C 301.5112,52.750002 299.25,50.488793 299.25,47.6875 L 299.25,37.8125 C 299.25,35.011209 301.51121,32.75 304.3125,32.75 z M 52.1875,55.1875 L 271.8125,55.1875 L 271.8125,214.8125 L 52.1875,214.8125 L 52.1875,55.1875 z M 23.3125,92.75 L 44.875,92.75 C 47.676293,92.75 49.9375,95.011207 49.9375,97.8125 L 49.9375,107.6875 C 49.937502,110.48879 47.676293,112.75 44.875,112.75 L 23.3125,112.75 C 20.511207,112.75 18.25,110.48879 18.25,107.6875 L 18.25,97.8125 C 18.25,95.011205 20.511207,92.75 23.3125,92.75 z M 304.3125,92.75 L 325.875,92.75 C 328.67631,92.75 330.9375,95.011207 330.9375,97.8125 L 330.9375,107.6875 C 330.93751,110.48879 328.67629,112.75 325.875,112.75 L 304.3125,112.75 C 301.5112,112.75 299.25,110.48879 299.25,107.6875 L 299.25,97.8125 C 299.25,95.011205 301.51121,92.75 304.3125,92.75 z M 23.3125,151.75 L 44.875,151.75 C 47.676293,151.75 49.9375,154.01121 49.9375,156.8125 L 49.9375,166.6875 C 49.937502,169.48879 47.676293,171.75 44.875,171.75 L 23.3125,171.75 C 20.511207,171.75001 18.25,169.48879 18.25,166.6875 L 18.25,156.8125 C 18.25,154.0112 20.511207,151.75 23.3125,151.75 z M 304.3125,151.75 L 325.875,151.75 C 328.67631,151.75 330.9375,154.01121 330.9375,156.8125 L 330.9375,166.6875 C 330.93751,169.48879 328.67629,171.75 325.875,171.75 L 304.3125,171.75 C 301.5112,171.75001 299.25,169.48879 299.25,166.6875 L 299.25,156.8125 C 299.25,154.0112 301.51121,151.75 304.3125,151.75 z M 23.3125,215.75 L 44.875,215.75 C 47.676293,215.75 49.9375,218.01121 49.9375,220.8125 L 49.9375,230.6875 C 49.937502,233.48879 47.676293,235.75 44.875,235.75 L 23.3125,235.75 C 20.511207,235.75001 18.25,233.48879 18.25,230.6875 L 18.25,220.8125 C 18.25,218.0112 20.511207,215.75 23.3125,215.75 z M 304.3125,215.75 L 325.875,215.75 C 328.67631,215.75 330.9375,218.01121 330.9375,220.8125 L 330.9375,230.6875 C 330.93751,233.48879 328.67629,235.75 325.875,235.75 L 304.3125,235.75 C 301.5112,235.75001 299.25,233.48879 299.25,230.6875 L 299.25,220.8125 C 299.25,218.0112 301.51121,215.75 304.3125,215.75 z "
     style="fill:black;fill-opacity:1;stroke:black;stroke-width:0.59177601;stroke-miterlimit:4;stroke-dashoffset:0;stroke-opacity:1"
     id="rect2833" />
  <rect
     width="25.493723"
     height="269.49371"
     rx="0"
     ry="0"
     x="272.29379"
     y="0.25311935"
     style="opacity:1;fill:none;fill-opacity:1;stroke:none;stroke-width:0.50627637;stroke-miterlimit:4;stroke-dasharray:none;stroke-dashoffset:0;stroke-opacity:1"
     id="rect2020" />
  <path
     d="M 280.97964,192.72661 C 280.79874,196.18105 279.9031,258.82707 279.88333,269.55962 L 276.6431,269.75 C 276.61154,264.90479 276.09726,261.71165 275.27171,256.29662 C 274.84741,253.51357 276.21456,252.703 276.3106,249.30037 C 276.46437,243.8521 275.70856,235.30744 275.16537,228.24113 C 275.04549,226.68159 277.1514,223.15634 277.14834,221.61716 C 277.14482,219.8477 275.00121,215.79665 275.0035,214.1244 C 275.00508,212.96157 276.96651,211.64844 276.95856,210.54808 C 276.93413,207.16484 276.16589,201.84293 276.07148,199.41678 C 276.03998,198.60725 274.67929,192.81613 274.94894,185.55332 C 275.02855,183.40895 277.2025,182.2776 277.14746,179.68545 C 277.10558,177.71343 275.28182,175.61941 275.24976,173.41493 C 275.22883,171.97569 276.62572,170.31247 276.58128,168.78593 C 276.51291,166.43747 274.66135,163.9899 274.59971,161.45605 C 274.5558,159.65048 275.57772,157.62384 275.52184,155.73812 C 275.4479,153.24214 273.41965,150.85689 273.36842,148.2361 C 273.33069,146.30579 275.96564,144.52231 275.91536,142.53275 C 275.85328,140.076 272.94215,138.1096 272.89794,135.56954 C 272.87016,133.97335 274.98448,132.36219 274.9551,130.73788 C 274.92617,129.13869 273.11413,125.20975 273.09071,123.59613 C 273.06574,121.87464 275.71731,120.14616 275.68805,118.4133 C 275.66195,116.8671 273.13768,113.53428 273.11551,111.98836 C 273.09158,110.32036 275.38784,109.36688 275.3613,107.70184 C 275.3289,105.66965 272.79989,102.75059 272.77468,100.7351 C 272.75673,99.299129 275.59502,96.084648 275.57511,94.664953 C 275.55235,93.042381 272.85298,90.896566 272.83436,89.301709 C 272.81116,87.313321 275.4651,85.348617 275.43889,83.412938 C 275.41846,81.904212 272.72115,79.164354 272.70432,77.696008 C 272.68834,76.302591 275.35038,74.036416 275.33318,72.6855 C 275.31768,71.467585 272.98172,68.126371 272.96828,66.949373 C 272.93558,64.086593 274.68835,62.061672 274.65513,59.470704 C 274.63865,58.18565 272.83781,56.758634 272.82415,55.549822 C 272.80788,54.110257 275.11263,52.19175 275.09547,50.870884 C 275.06498,48.523576 272.71894,45.83779 272.70101,43.913999 C 272.68038,41.701782 275.15915,39.43297 275.13716,37.866165 C 275.09773,35.058032 272.93608,32.827689 272.94226,32.502845 C 273.00783,29.050844 274.65472,28.73466 274.97863,24.515398 C 275.28858,20.47796 276.19649,12.092228 276.30584,0.31367635 L 279.72963,0.22380504 C 279.85605,7.6748734 279.86548,26.823312 280.46715,29.847456 C 281.03459,32.699628 282.77443,35.393927 282.72423,36.094115 C 282.70801,36.320234 280.31297,37.952829 280.15121,40.393182 C 280.1087,41.034446 283.31347,41.116408 283.32876,46.031973 C 283.3345,47.876873 280.11843,49.985382 280.11009,52.32041 C 280.10394,54.042484 283.13668,56.602059 283.13651,58.555666 C 283.1364,59.94136 280.09844,61.559302 280.09432,63.047093 C 280.09001,64.602293 284.01633,66.388734 284.01588,68.043286 C 284.01524,70.395278 280.971,72.841085 280.95555,75.363578 C 280.94412,77.229442 283.79154,77.887247 283.7833,79.830099 C 283.77658,81.416071 281.44568,83.205598 281.43373,84.837643 C 281.41831,86.942737 283.36847,89.43965 283.35549,91.605783 C 283.3445,93.441566 280.29492,95.295623 280.27857,97.162954 C 280.26405,98.820425 284.00245,99.952632 283.99345,101.62753 C 283.98325,103.52354 280.03947,105.60824 280.01984,107.51931 C 279.99664,109.77886 282.83786,112.22327 282.82837,114.48691 C 282.82062,116.33649 280.30976,117.82699 280.2962,119.6681 C 280.27813,122.12192 284.018,124.74455 284.01467,127.16771 C 284.01278,128.54412 280.43446,129.91346 280.42312,131.27371 C 280.40808,133.07708 283.96968,134.86447 283.96442,136.63122 C 283.95829,138.68645 280.00967,140.71374 279.97794,142.70571 C 279.95195,144.33737 282.61402,148.08823 282.60578,149.66846 C 282.59217,152.27732 280.06422,154.78102 280.02556,157.1683 C 279.99335,159.15709 282.12727,161.24364 282.1368,163.06428 C 282.15287,166.13342 279.80539,170.19652 279.75428,172.72565 C 279.56213,182.23203 281.14209,189.62462 280.97964,192.72661 z "
     style="fill:white;fill-opacity:1;stroke:white;stroke-width:0.5;stroke-miterlimit:4;stroke-dasharray:none;stroke-dashoffset:0;stroke-opacity:1"
     id="path3118" />
  <path
     d="M 295.5655,192.72661 C 295.3846,196.18105 294.48896,258.82707 294.46919,269.55962 L 291.22896,269.75 C 291.1974,264.90479 290.68312,261.71165 289.85757,256.29662 C 289.43327,253.51357 290.80042,252.703 290.89646,249.30037 C 291.05023,243.8521 290.29442,235.30744 289.75123,228.24113 C 289.63135,226.68159 291.73726,223.15634 291.7342,221.61716 C 291.73068,219.8477 289.58707,215.79665 289.58936,214.1244 C 289.59094,212.96157 291.55237,211.64844 291.54442,210.54808 C 291.51999,207.16484 290.75175,201.84293 290.65734,199.41678 C 290.62584,198.60725 289.26515,192.81613 289.5348,185.55331 C 289.61441,183.40894 291.78836,182.27759 291.73332,179.68544 C 291.69144,177.71342 289.86768,175.6194 289.83562,173.41492 C 289.81469,171.97568 291.21158,170.31246 291.16714,168.78592 C 291.09877,166.43746 289.24721,163.98989 289.18557,161.45604 C 289.14166,159.65047 290.16358,157.62383 290.1077,155.73811 C 290.03376,153.24213 288.00551,150.85688 287.95428,148.23609 C 287.91655,146.30578 290.5515,144.5223 290.50122,142.53274 C 290.43914,140.07599 287.52801,138.10959 287.4838,135.56953 C 287.45602,133.97334 289.57034,132.36218 289.54096,130.73787 C 289.51203,129.13868 287.69999,125.20974 287.67657,123.59612 C 287.6516,121.87463 290.30317,120.14615 290.27391,118.41329 C 290.24781,116.86709 287.72354,113.53427 287.70137,111.98835 C 287.67744,110.32035 289.9737,109.36687 289.94716,107.70183 C 289.91476,105.66964 287.38575,102.75058 287.36054,100.73509 C 287.34259,99.299122 290.18088,96.084641 290.16097,94.664946 C 290.13821,93.042374 287.43884,90.896559 287.42022,89.301702 C 287.39702,87.313314 290.05096,85.34861 290.02475,83.412931 C 290.00432,81.904205 287.30701,79.164346 287.29018,77.696 C 287.2742,76.302583 289.93624,74.036408 289.91904,72.685492 C 289.90354,71.467577 287.56758,68.126363 287.55414,66.949365 C 287.52144,64.086585 289.27421,62.061664 289.24099,59.470696 C 289.22451,58.185642 287.42367,56.758626 287.41001,55.549814 C 287.39374,54.110249 289.69849,52.191742 289.68133,50.870876 C 289.65084,48.523568 287.3048,45.837782 287.28687,43.913991 C 287.26624,41.701774 289.74501,39.432962 289.72302,37.866157 C 289.68359,35.058024 287.52194,32.827681 287.52812,32.502837 C 287.59369,29.050836 289.24058,28.734652 289.56449,24.51539 C 289.87444,20.477952 290.78235,12.09222 290.8917,0.31366936 L 294.31549,0.22379736 C 294.44191,7.6748664 294.45134,26.823304 295.05301,29.847448 C 295.62045,32.69962 297.36029,35.393919 297.31009,36.094107 C 297.29387,36.320226 294.89883,37.952821 294.73707,40.393174 C 294.69456,41.034438 297.89933,41.1164 297.91462,46.031965 C 297.92036,47.876865 294.70429,49.985374 294.69595,52.320402 C 294.6898,54.042476 297.72254,56.602051 297.72237,58.555658 C 297.72226,59.941352 294.6843,61.559294 294.68018,63.047085 C 294.67587,64.602285 298.60219,66.388726 298.60174,68.043278 C 298.6011,70.39527 295.55686,72.841077 295.54141,75.36357 C 295.52998,77.229434 298.3774,77.887239 298.36916,79.830092 C 298.36244,81.416064 296.03154,83.205591 296.01959,84.837636 C 296.00417,86.94273 297.95433,89.439643 297.94135,91.605776 C 297.93036,93.441559 294.88078,95.295616 294.86443,97.162947 C 294.84991,98.820418 298.58831,99.952624 298.57931,101.62752 C 298.56911,103.52353 294.62533,105.60823 294.6057,107.5193 C 294.5825,109.77885 297.42372,112.22326 297.41423,114.4869 C 297.40648,116.33648 294.89562,117.82698 294.88206,119.66809 C 294.86399,122.12191 298.60386,124.74454 298.60053,127.1677 C 298.59864,128.54411 295.02032,129.91345 295.00898,131.2737 C 294.99394,133.07707 298.55554,134.86446 298.55028,136.63121 C 298.54415,138.68644 294.59553,140.71373 294.5638,142.7057 C 294.53781,144.33736 297.19988,148.08822 297.19164,149.66845 C 297.17803,152.27731 294.65008,154.78101 294.61142,157.16829 C 294.57921,159.15708 296.71313,161.24363 296.72266,163.06427 C 296.73873,166.13341 294.39125,170.19651 294.34014,172.72564 C 294.14799,182.23202 295.72795,189.62461 295.5655,192.72661 z "
     style="fill:white;fill-opacity:1;stroke:white;stroke-width:0.50000727;stroke-miterlimit:4;stroke-dashoffset:0;stroke-opacity:1"
     id="path3121" />
</svg>
