<?xml version="1.0" standalone="no"?>
<!DOCTYPE svg PUBLIC "-//W3C//DTD SVG 20010904//EN"
 "http://www.w3.org/TR/2001/REC-SVG-20010904/DTD/svg10.dtd">
<svg version="1.0" xmlns="http://www.w3.org/2000/svg"
 width="662.000000pt" height="1280.000000pt" viewBox="0 0 662.000000 1280.000000"
 preserveAspectRatio="xMidYMid meet">
<metadata>
Created by potrace 1.15, written by Peter Selinger 2001-2017
</metadata>
<g transform="translate(0.000000,1280.000000) scale(0.100000,-0.100000)"
fill="#000000" stroke="none">
<path d="M3976 12785 c-459 -75 -837 -357 -1030 -766 -49 -103 -91 -227 -101
-293 -4 -23 -10 -48 -14 -54 -5 -8 -140 -42 -167 -42 -1 0 -21 30 -46 68 -161
239 -426 411 -722 467 -94 18 -282 21 -377 6 -389 -63 -728 -330 -870 -686
-179 -449 -68 -945 283 -1263 121 -110 275 -199 421 -243 l67 -21 0 -64 0 -64
-113 0 c-62 0 -117 4 -123 9 -5 5 -65 30 -133 55 -121 45 -128 47 -221 44
l-96 -3 143 -300 c80 -165 147 -303 151 -307 4 -4 30 -2 57 5 44 11 54 19 85
65 l34 52 108 0 108 0 0 -705 0 -705 180 0 c142 0 180 -3 180 -13 0 -19 -39
-300 -42 -303 -2 -1 -195 -38 -430 -83 l-428 -81 -90 45 c-49 25 -97 45 -107
45 -29 0 -667 -122 -675 -129 -4 -4 1 -79 12 -166 29 -230 27 -224 50 -218 10
3 165 33 345 67 l326 63 82 81 82 81 210 45 c524 113 718 156 723 161 4 4 56
295 72 403 0 1 774 2 1720 2 l1720 0 0 1170 0 1170 -150 0 c-82 0 -150 2 -150
4 0 2 34 37 76 77 192 186 328 434 386 702 31 145 31 398 0 544 -58 271 -193
514 -391 706 -186 180 -395 293 -651 353 -136 32 -362 41 -494 19z m-949
-2082 c54 -85 132 -180 207 -252 37 -35 65 -65 63 -67 -2 -3 -160 -3 -350 -2
l-347 3 31 45 c42 62 104 186 120 239 7 23 19 45 27 48 14 6 177 40 200 42 7
0 29 -25 49 -56z m1982 -2207 c41 -22 61 -59 61 -112 0 -39 -5 -51 -34 -80
-29 -29 -41 -34 -80 -34 -53 0 -90 20 -112 61 -55 107 58 220 165 165z"/>
<path d="M6275 10318 l-340 -207 -272 0 -273 -1 0 -525 0 -525 271 0 272 0
339 -206 c187 -113 341 -204 344 -202 2 3 3 425 2 939 l-3 935 -340 -208z"/>
<path d="M2460 7715 l0 -235 61 0 c53 0 60 -2 55 -17 -5 -16 -73 -355 -435
-2153 l-107 -535 -57 -3 -57 -3 0 -144 0 -145 25 0 c14 0 25 -4 25 -8 0 -5
-65 -332 -144 -728 -262 -1301 -646 -3209 -651 -3230 -4 -18 5 -22 81 -41 60
-15 87 -17 89 -9 2 6 200 736 440 1621 626 2307 645 2377 651 2386 3 5 32 9
65 9 l59 0 0 145 c0 138 -1 145 -20 145 -26 0 -25 7 9 131 16 57 120 439 231
849 111 410 217 799 235 865 l33 120 6 -75 c4 -41 24 -365 46 -720 22 -355 62
-1009 90 -1455 28 -445 66 -1062 85 -1370 60 -972 164 -2653 175 -2835 6 -96
13 -199 16 -227 l5 -53 105 0 104 0 0 33 c0 19 16 337 35 708 32 613 53 1032
145 2819 17 322 35 655 41 740 6 85 13 211 15 280 4 123 25 537 84 1680 16
316 30 603 30 638 0 34 4 62 10 62 6 0 10 -6 10 -14 0 -8 34 -140 76 -293 41
-153 174 -642 295 -1086 l219 -809 0 -139 0 -139 35 0 c28 0 37 -5 44 -23 5
-13 214 -779 465 -1702 655 -2416 645 -2377 650 -2383 8 -7 166 29 166 38 0 4
-108 545 -241 1201 -132 657 -303 1505 -379 1884 -76 380 -152 754 -168 832
-16 78 -27 145 -24 148 3 3 25 5 49 5 l43 0 0 145 0 145 -79 0 -78 0 -71 353
c-39 193 -161 800 -271 1347 -111 547 -201 999 -201 1005 0 6 20 9 50 7 l50
-4 0 236 0 236 -1110 0 -1110 0 0 -235z m551 -352 c2 -83 -4 -108 -94 -438
-52 -192 -164 -602 -247 -910 -84 -308 -194 -713 -244 -900 l-93 -340 -62 -3
-62 -3 7 28 c4 15 127 624 274 1353 l266 1325 120 5 c140 6 132 13 135 -117z
m839 85 c0 -18 -13 -289 -30 -603 -16 -313 -45 -889 -65 -1280 -19 -390 -38
-734 -41 -762 l-5 -53 -163 0 -162 0 -12 188 c-7 103 -35 552 -62 997 -27 446
-59 951 -70 1124 -18 288 -19 317 -4 367 l15 54 300 0 299 0 0 -32z m550 29
c0 -2 122 -608 270 -1346 149 -739 270 -1347 270 -1352 0 -6 -27 -9 -62 -7
l-61 3 -172 635 c-95 349 -257 946 -359 1325 -103 380 -191 702 -196 718 l-9
27 160 0 c87 0 159 -2 159 -3z m-2150 -3003 c0 -3 -66 -247 -146 -542 -80
-295 -160 -590 -176 -655 -17 -64 -33 -116 -35 -114 -4 5 254 1295 262 1308 7
10 95 13 95 3z m2896 -709 c128 -635 161 -815 125 -668 -7 26 -93 346 -192
709 -98 364 -179 665 -179 669 0 3 23 5 52 3 l52 -3 142 -710z m-1452 623 c-2
-35 -14 -238 -24 -453 -11 -214 -38 -740 -60 -1168 -22 -427 -40 -798 -40
-824 0 -91 -10 -34 -20 113 -10 152 -57 916 -110 1784 -16 267 -32 513 -35
548 l-6 62 150 0 150 0 -5 -62z"/>
</g>
</svg>
