<?xml version="1.0" standalone="no"?>
<!DOCTYPE svg PUBLIC "-//W3C//DTD SVG 20010904//EN"
 "http://www.w3.org/TR/2001/REC-SVG-20010904/DTD/svg10.dtd">
<svg version="1.0" xmlns="http://www.w3.org/2000/svg"
 width="941.000000pt" height="640.000000pt" viewBox="0 0 941.000000 640.000000"
 preserveAspectRatio="xMidYMid meet">
<metadata>
Created by potrace 1.15, written by Peter Selinger 2001-2017
</metadata>
<g transform="translate(0.000000,1280.000000) scale(0.100000,-0.100000)"
fill="#000000" stroke="none">
<path d="M5380 12410 c-241 -25 -476 -111 -670 -243 -156 -108 -332 -301 -421
-463 -23 -41 -44 -74 -48 -74 -4 0 -36 15 -71 34 -227 120 -503 176 -765 156
-137 -11 -205 -24 -325 -62 -350 -110 -654 -364 -817 -684 -100 -195 -143
-375 -143 -599 0 -358 127 -673 374 -933 249 -260 583 -418 926 -438 58 -3
114 -7 125 -9 20 -2 20 -10 23 -535 1 -294 -1 -537 -6 -542 -7 -7 -1340 -278
-1422 -290 -18 -2 -25 2 -28 17 -2 11 -12 51 -23 88 -28 97 -45 85 -42 -30 l3
-90 -118 -6 c-365 -20 -1201 -205 -1414 -313 -57 -29 -65 -40 -39 -53 85 -46
857 80 1296 210 238 71 295 84 295 69 0 -24 43 -120 51 -115 5 4 9 35 9 70 0
53 3 65 18 69 15 5 1411 286 1419 286 2 0 3 -91 3 -202 0 -183 2 -206 20 -244
44 -90 166 -169 306 -199 104 -22 3184 -22 3288 0 144 30 259 106 302 200 23
49 24 56 24 359 0 264 2 307 14 303 8 -3 292 -187 631 -408 339 -221 625 -403
635 -406 20 -5 253 50 308 72 l32 14 0 1129 0 1129 -24 11 c-32 14 -195 59
-263 72 l-53 9 -577 -376 c-318 -207 -604 -393 -635 -414 -31 -22 -59 -39 -62
-39 -4 0 -6 161 -6 358 0 327 -2 360 -19 398 -35 76 -118 142 -238 187 -56 21
-74 22 -527 27 l-468 5 73 50 c98 65 281 250 347 350 145 218 218 441 229 695
26 604 -366 1150 -959 1339 -173 55 -399 79 -568 61z"/>

</g>
</svg>
