<svg version="1.0" width="340" height="340" viewBox="0 0 640 640" xmlns="http://www.w3.org/2000/svg"><path d="M392.141 251.016c-13.9 1.16-25.645 6.156-35.899 15.32-8.382 7.46-13.853 16.34-16.434 26.57-.426 1.68-.923 4.12-1.089 5.375l-.284 2.32h-29.41l-.948-1.704c-2.273-4.05-6.89-9.425-10.774-12.574-7.886-6.37-17.429-10.254-27.8-11.296-3.53-.379-10.467-.19-13.996.355-11.035 1.705-20.601 6.607-28.653 14.682-9.306 9.306-13.829 20.791-13.308 33.744.379 9.614 3.22 17.547 9.022 25.267 2.013 2.7 5.92 6.725 8.549 8.88 6.82 5.517 15.25 9.188 24.343 10.632l1.823.284v21.691c0 18.376.048 21.786.332 22.189.308.426.71.45 5.801.52l5.47.072v7.554c0 7.53 0 7.553.521 7.909.474.331 5.281.379 46.508.379h45.963l.45-.498c.403-.45.426-.923.355-7.933l-.07-7.435h8.974c7.72 0 9.046-.047 9.496-.379.497-.355.52-.474.52-5.091 0-4.547.024-4.713.474-4.713.45 0 .474.166.474 2.368 0 2.297.024 2.368.734 3.197l.734.83h19.347l.355-.522c.331-.473.379-2.96.379-22.046 0-21.62-.024-22.188-.805-22.71-.142-.094-4.594-.189-9.875-.189-11.958 0-10.87-.426-10.87 4.286 0 3.126-.023 3.292-.473 3.292-.45 0-.473-.166-.473-5.873v-5.896l1.965.426c13.521 2.936 29.671.971 41.677-5.091 5.47-2.77 10.159-6.157 14.942-10.798 10.135-9.851 15.487-21.312 16.221-34.786 1.066-19.11-6.701-35.189-22.78-47.242-7.625-5.683-16.647-9.354-26.924-10.917-2.416-.378-11.935-.663-14.564-.45zm18.944 16.315c6.986 2.013 16.837 8.833 21.052 14.563 1.018 1.374 2.273 3.552 2.273 3.908 0 .26-11.319 5.683-14.302 6.867-2.558 1.018-2.937 1.113-4.168.994-4.357-.473-9.827-4.215-11.106-7.625-.474-1.23-.497-1.8-.497-8.974 0-4.215.07-8.312.165-9.14l.142-1.493 2.155.142c1.184.071 3.102.427 4.286.758zm-22.85-.379.591.166.876 8.146c1.019 9.472 1.042 10.182.498 11.864-.332 1.042-.806 1.681-2.44 3.339-1.633 1.657-2.391 2.226-3.907 2.96-1.823.876-1.989.9-4.38.9-2.25 0-2.7-.095-4.855-.877-1.302-.473-5.778-2.107-9.946-3.623-4.167-1.515-7.885-2.889-8.24-3.007l-.663-.237.97-1.776c4.287-7.956 15.535-16.055 24.557-17.689 1.942-.355 5.92-.45 6.938-.166zM278.926 290.04c3.812 1.066 8.312 3.576 11.982 6.678 1.468 1.255 3.789 3.647 3.789 3.931 0 .047-5.28.047-11.722 0l-11.722-.047v-3.884c0-2.107.071-4.688.166-5.707l.142-1.847 2.629.142c1.705.095 3.362.356 4.736.734zm-20.673.782c0 .758.047 1.539.071 1.728.047.19.142 2.132.237 4.31.142 3.458.118 3.978-.19 3.978-.615 0-.852.853-.852 3.126 0 2.037-.047 2.32-.663 3.292-1.018 1.586-3.173 3.41-4.736 4.002-.97.379-1.87.52-3.244.52-1.847.024-2.084-.047-9.235-2.77a565.536 565.536 0 0 1-7.412-2.841c-.142-.119 1.586-3.41 2.368-4.594 1.089-1.563 4.286-4.831 6.299-6.441 2.983-2.392 6.535-4.192 9.732-4.95 1.09-.26 4.026-.544 6.844-.686l.757-.024zm183.237 11.248c2.747 8.075-1.28 24.438-7.72 31.447l-1.184 1.279-5.375-4.95c-2.96-2.699-5.85-5.517-6.394-6.25-1.965-2.558-3.078-5.329-3.363-8.407-.142-1.54-.094-1.824.474-2.913 1.231-2.44 5.541-6.37 8.762-7.98 1.255-.64 3.15-1.208 7.6-2.25 3.269-.758 6.087-1.397 6.324-1.42.26-.024.52.402.876 1.444zm-40.825.047c1.99.9 3.008 2.605 2.984 4.95 0 2.675-1.563 4.285-4.452 4.57-2.747.284-5.588-1.137-6.252-3.15-.497-1.492-.402-3.647.214-4.973.52-1.089.639-1.184 1.894-1.539 2.084-.592 4.191-.52 5.612.142zm-164.221 18.494c3.718.474 7.08.995 7.506 1.184 1.469.64 2.581 3.245 2.96 6.844.308 2.818 0 5.541-.828 7.128-.285.592-2.345 3.15-4.547 5.683l-4.026 4.594-1.136-1.113c-3.268-3.173-6.536-10.159-7.388-15.842-.356-2.32-.474-7.767-.214-8.785.095-.285.332-.521.545-.521.213 0 3.41.378 7.128.828zm165.524 4.168c1.776.829 3.552 2.297 5.09 4.191.711.877 3.434 4.879 6.04 8.928 5.327 8.264 5.067 7.388 2.557 8.667-6.583 3.339-23.349 3.315-32.205-.071l-1.847-.687v-6.488l3.528-5.684c3.718-5.99 4.76-7.317 6.441-8.193 2.226-1.137 3.481-1.397 6.37-1.326 2.344.047 2.913.142 4.026.663zM257.33 350.188l-.071 7.199-1.374-.308c-1.752-.427-3.552-1.137-4.76-1.895l-.97-.615.544-.877c.308-.497 1.87-3.102 3.505-5.801 1.634-2.676 3.007-4.878 3.078-4.902.071 0 .095 3.244.048 7.199z" style="stroke-width:.236801"/></svg>