<svg aria-hidden="true" style="position: absolute; width: 0; height: 0; overflow: hidden;" version="1.1" xmlns="http://www.w3.org/2000/svg" xmlns:xlink="http://www.w3.org/1999/xlink">
<defs>
<symbol id="muveroll" viewBox="0 0 32 32">
<path d="M7.418 8.125c-1.343 0.13-2.605 0.637-3.542 1.422-0.118 0.1-0.308 0.23-0.425 0.295-0.598 0.325-1.063 0.67-1.515 1.12-0.18 0.178-0.403 0.42-0.495 0.537-1.68 2.125-1.905 5.13-0.58 7.763 0.457 0.905 0.945 1.57 1.692 2.305 2.288 2.247 5.638 2.948 8.348 1.745 0.832-0.367 1.697-1.017 2.25-1.69 0.075-0.093 0.232-0.238 0.35-0.325 0.28-0.212 0.773-0.692 1.010-0.983 0.41-0.505 0.783-1.148 1.018-1.76 0.057-0.152 0.12-0.28 0.137-0.28 0.055 0 0.598 0.195 1.21 0.438 0.79 0.31 1.19 0.445 1.59 0.53 0.29 0.060 0.375 0.067 0.848 0.067 0.492 0.003 0.543-0.003 0.795-0.065 0.57-0.145 0.84-0.26 2.125-0.905 0.935-0.47 1.227-0.593 1.718-0.723 0.258-0.067 0.33-0.075 0.675-0.078 0.445-0.003 0.637 0.038 1.043 0.212 0.332 0.145 0.58 0.293 1.42 0.845 0.845 0.555 1.027 0.668 1.438 0.863 0.595 0.285 1.15 0.418 1.745 0.413 0.19-0.003 0.37-0.010 0.402-0.020 0.040-0.010 0.14-0.122 0.282-0.315 0.25-0.337 1.027-1.49 1.015-1.503-0.005-0.003-0.11 0.030-0.233 0.078-0.308 0.115-0.547 0.148-0.92 0.13-0.785-0.038-1.477-0.35-3.078-1.39-1.040-0.675-1.538-0.957-2.023-1.145-0.63-0.242-1.238-0.268-1.962-0.080-0.558 0.143-1.010 0.35-2.125 0.967-1.665 0.922-2.095 0.98-3.93 0.505-0.47-0.12-1.352-0.337-1.695-0.413-0.057-0.015-0.057-0.015-0.040-0.32 0.020-0.377-0.023-1.015-0.102-1.48-0.193-1.13-0.598-2.143-1.25-3.125-1.297-1.953-3.32-3.252-5.575-3.588-0.398-0.057-1.26-0.085-1.62-0.050zM11.27 10.275c0.615 0.175 1.162 0.65 1.433 1.24 0.080 0.172 0.172 0.508 0.172 0.615 0 0.068-0.008 0.065-0.13-0.085-0.215-0.262-0.89-0.92-1.182-1.152-0.15-0.12-0.428-0.322-0.613-0.447s-0.342-0.232-0.35-0.24c-0.033-0.033 0.508 0.023 0.67 0.070zM4.338 11.11c0.5 0.075 0.87 0.265 1.245 0.635 0.15 0.145 0.417 0.5 0.417 0.553 0 0.010-0.063 0.047-0.14 0.085-0.365 0.18-0.853 0.578-1.163 0.947l-0.117 0.143-0.155-0.155c-0.287-0.287-0.493-0.665-0.59-1.088-0.072-0.303-0.025-0.893 0.090-1.102 0.033-0.063 0.098-0.065 0.412-0.018zM9.675 11.25c0.973 0.155 1.755 0.977 1.877 1.98 0.027 0.223 0.008 0.47-0.057 0.73-0.037 0.148-0.075 0.165-0.345 0.165h-0.195l-0.088-0.158c-0.227-0.405-0.67-0.902-1.070-1.205-0.21-0.158-0.607-0.4-0.727-0.445-0.025-0.008-0.050-0.055-0.060-0.107-0.025-0.135 0.008-0.63 0.050-0.765 0.070-0.22 0.070-0.22 0.273-0.22 0.1 0 0.252 0.012 0.342 0.025zM11.825 16.317c0.265 0.075 0.73 0.317 0.682 0.358-0.010 0.010-0.098 0.038-0.195 0.063-0.095 0.025-0.322 0.1-0.505 0.165-0.18 0.067-0.332 0.122-0.338 0.122s-0.002-0.075 0.010-0.17c0.010-0.093 0.025-0.265 0.035-0.385l0.015-0.218 0.078 0.015c0.045 0.008 0.143 0.030 0.217 0.050zM3.605 16.315l0.112 0.015 0.030 0.267c0.098 0.852 0.407 1.645 0.895 2.288 0.088 0.115 0.088 0.12 0.030 0.102-0.032-0.010-0.138-0.058-0.235-0.105-0.63-0.315-1.080-0.913-1.2-1.595-0.045-0.267-0.047-0.44-0.002-0.69 0.055-0.31 0.072-0.323 0.37-0.282zM2 17.152c0 0.012 0.055 0.163 0.123 0.332 0.38 0.948 0.965 1.855 1.683 2.605 0.107 0.113 0.195 0.212 0.195 0.223s-0.098 0.012-0.215 0.003c-0.97-0.080-1.785-0.758-2.030-1.692-0.093-0.352-0.093-0.735 0-1.047 0.042-0.152 0.2-0.475 0.222-0.46 0.012 0.008 0.023 0.025 0.023 0.038zM13.457 18.317c0.018 0.172 0.012 0.242-0.037 0.525-0.025 0.152-0.027 0.157-0.117 0.175-0.148 0.030-0.553 0.015-0.735-0.027-0.213-0.050-0.495-0.165-0.64-0.265-0.11-0.073-0.113-0.073-0.050-0.098 0.57-0.223 0.863-0.317 1.272-0.413 0.145-0.035 0.27-0.063 0.277-0.063 0.008-0.003 0.023 0.073 0.030 0.165zM11.008 19.258c0.088 0.215 0.143 0.503 0.143 0.727v0.188l-0.14-0.047c-0.22-0.078-0.51-0.242-0.705-0.402-0.1-0.082-0.18-0.16-0.18-0.172 0-0.035 0.773-0.477 0.803-0.46 0.010 0.005 0.045 0.080 0.080 0.168zM9.56 20.28c0.168 0.34 0.22 0.565 0.223 0.945 0 0.175-0.012 0.358-0.027 0.418-0.030 0.102-0.033 0.105-0.172 0.122-0.557 0.070-1.255-0.205-1.697-0.668-0.173-0.183-0.438-0.563-0.435-0.628 0-0.005 0.155-0.010 0.345-0.012 0.502-0.005 0.988-0.115 1.418-0.32 0.098-0.045 0.188-0.085 0.205-0.085 0.015-0.003 0.080 0.102 0.143 0.227zM6.245 21.872c0.402 0.203 1.152 0.46 1.68 0.578 0.282 0.063 0.882 0.15 1.038 0.15 0.2 0 0.21 0.030 0.047 0.137-0.318 0.212-0.668 0.302-1.093 0.28-0.535-0.027-0.985-0.225-1.395-0.613-0.197-0.185-0.5-0.605-0.438-0.605 0.010 0 0.080 0.032 0.16 0.073z"></path>
</symbol>
<symbol id="camera" viewBox="0 0 24 32">
<path d="M13.45 0.975c-0.602 0.063-1.19 0.277-1.675 0.608-0.39 0.27-0.83 0.752-1.053 1.158-0.057 0.103-0.11 0.185-0.12 0.185s-0.090-0.038-0.178-0.085c-0.568-0.3-1.258-0.44-1.912-0.39-0.342 0.027-0.513 0.060-0.813 0.155-0.875 0.275-1.635 0.91-2.043 1.71-0.25 0.487-0.357 0.938-0.357 1.498 0 0.895 0.317 1.683 0.935 2.332 0.623 0.65 1.457 1.045 2.315 1.095 0.145 0.008 0.285 0.018 0.313 0.023 0.050 0.005 0.050 0.025 0.057 1.338 0.002 0.735-0.002 1.342-0.015 1.355-0.018 0.018-3.35 0.695-3.555 0.725-0.045 0.005-0.063-0.005-0.070-0.043-0.005-0.027-0.030-0.127-0.058-0.22-0.070-0.242-0.112-0.213-0.105 0.075l0.008 0.225-0.295 0.015c-0.913 0.050-3.002 0.512-3.535 0.783-0.143 0.072-0.163 0.1-0.097 0.133 0.212 0.115 2.143-0.2 3.24-0.525 0.595-0.178 0.737-0.21 0.737-0.172 0 0.060 0.107 0.3 0.128 0.287 0.013-0.010 0.022-0.088 0.022-0.175 0-0.133 0.008-0.162 0.045-0.172 0.037-0.012 3.527-0.715 3.547-0.715 0.005 0 0.008 0.227 0.008 0.505 0 0.457 0.005 0.515 0.050 0.61 0.11 0.225 0.415 0.422 0.765 0.498 0.26 0.055 7.96 0.055 8.22 0 0.36-0.075 0.648-0.265 0.755-0.5 0.058-0.123 0.060-0.14 0.060-0.898 0-0.66 0.005-0.768 0.035-0.758 0.020 0.008 0.73 0.467 1.578 1.020s1.563 1.008 1.587 1.015c0.050 0.012 0.633-0.125 0.77-0.18l0.080-0.035v-5.645l-0.060-0.027c-0.080-0.035-0.488-0.147-0.657-0.18l-0.133-0.022-1.442 0.94c-0.795 0.518-1.51 0.982-1.587 1.035-0.078 0.055-0.148 0.098-0.155 0.098-0.010 0-0.015-0.402-0.015-0.895 0-0.817-0.005-0.9-0.047-0.995-0.087-0.19-0.295-0.355-0.595-0.468-0.14-0.053-0.185-0.055-1.317-0.067l-1.17-0.013 0.182-0.125c0.245-0.162 0.703-0.625 0.867-0.875 0.363-0.545 0.545-1.103 0.573-1.737 0.065-1.51-0.915-2.875-2.398-3.348-0.432-0.137-0.998-0.198-1.42-0.152z"></path>
<path d="M11.545 14.015c-0.025 0.023 0.055 0.287 0.143 0.475 0.305 0.66 0.912 1.14 1.637 1.29 0.285 0.060 0.815 0.053 1.063-0.015 0.627-0.17 1.123-0.54 1.442-1.072 0.105-0.172 0.277-0.633 0.255-0.672-0.015-0.023-4.518-0.027-4.54-0.005z"></path>
<path d="M11.325 16.75v0.8h0.875l-0.11 0.205c-0.060 0.115-0.643 1.23-1.29 2.482-0.65 1.25-1.55 2.983-2 3.85-0.755 1.455-1.33 2.56-2.175 4.188-0.183 0.35-0.407 0.782-0.5 0.962-0.348 0.665-0.8 1.54-1.050 2.025-0.143 0.275-0.27 0.515-0.282 0.532-0.032 0.040 0.045 0.128 0.080 0.093 0.013-0.015 1.040-1.875 2.282-4.137 1.245-2.262 3.015-5.482 3.935-7.157l1.672-3.043h0.51l0.012 0.105c0.008 0.060 0.070 0.968 0.14 2.020s0.25 3.775 0.4 6.050c0.152 2.275 0.275 4.168 0.275 4.205 0 0.067 0.055 0.098 0.085 0.047 0.008-0.012 0.005-0.41-0.010-0.883-0.012-0.47-0.030-1.082-0.037-1.358s-0.018-0.675-0.025-0.887c-0.012-0.418-0.015-0.497-0.088-3.238-0.072-2.738-0.075-2.822-0.088-3.212-0.008-0.2-0.025-0.848-0.037-1.438-0.015-0.593-0.030-1.15-0.033-1.245l-0.008-0.168 0.435 0.005 0.435 0.008 0.68 1.238c0.825 1.5 3.068 5.58 4.095 7.45 0.413 0.75 0.815 1.48 0.895 1.625 0.293 0.532 1.24 2.253 1.52 2.762 0.157 0.29 0.34 0.62 0.405 0.738s0.165 0.3 0.225 0.407c0.058 0.108 0.122 0.203 0.142 0.21 0.035 0.015 0.183-0.108 0.183-0.15 0-0.020-0.545-1.085-1-1.955-0.12-0.23-0.35-0.675-0.675-1.3-0.1-0.192-0.235-0.453-0.3-0.575-0.065-0.125-0.285-0.545-0.488-0.938s-0.433-0.837-0.512-0.988c-0.078-0.152-0.227-0.438-0.33-0.637-0.233-0.448-0.797-1.532-1.008-1.938-0.085-0.165-0.24-0.462-0.343-0.663-0.317-0.61-0.843-1.62-1.008-1.938-0.223-0.422-1.102-2.12-1.355-2.613-0.117-0.227-0.252-0.483-0.297-0.567-0.047-0.085-0.085-0.16-0.085-0.168s0.18-0.015 0.4-0.015h0.4v-1.6h-4.95v0.8z"></path>
</symbol>
<symbol id="cadr" viewBox="0 0 32 32">
<path d="M3.675 5.162v0.625h0.208c0.193 0 0.217 0.008 0.31 0.072 0.055 0.040 0.125 0.112 0.155 0.16 0.050 0.082 0.053 0.115 0.053 0.79v0.702l-0.265 0.275h-0.46v16.2h0.217c0.243 0 0.312 0.030 0.44 0.195l0.067 0.087v0.7c0 0.67-0.003 0.703-0.053 0.785-0.030 0.047-0.1 0.12-0.155 0.16-0.093 0.065-0.117 0.073-0.31 0.073h-0.208v1.275h24.625v-1.3h-0.198c-0.185 0-0.205-0.005-0.305-0.080-0.195-0.15-0.198-0.168-0.198-0.92v-0.665l0.065-0.102c0.038-0.055 0.113-0.13 0.168-0.168 0.087-0.055 0.13-0.065 0.285-0.065h0.183v-16.175h-0.175c-0.105 0-0.205-0.015-0.245-0.035-0.078-0.040-0.21-0.178-0.253-0.258-0.017-0.035-0.027-0.28-0.027-0.728v-0.673l0.075-0.105c0.117-0.162 0.205-0.202 0.433-0.202h0.192v-1.25h-24.625v0.625zM7.2 5.855c0.053 0.040 0.125 0.115 0.16 0.17l0.065 0.098v1.357l-0.075 0.105c-0.138 0.19-0.18 0.202-0.665 0.202-0.41 0-0.428-0.003-0.508-0.060-0.045-0.032-0.11-0.098-0.143-0.143l-0.060-0.082v-1.428l0.080-0.098c0.147-0.18 0.183-0.19 0.64-0.19 0.407 0 0.41 0 0.505 0.067zM10.367 5.85c0.053 0.032 0.125 0.107 0.162 0.165l0.070 0.105v1.36l-0.075 0.105c-0.137 0.19-0.18 0.202-0.665 0.202-0.41 0-0.428-0.003-0.508-0.060-0.045-0.032-0.11-0.098-0.143-0.143l-0.060-0.082v-1.428l0.080-0.098c0.148-0.18 0.182-0.19 0.64-0.19 0.393 0 0.41 0.003 0.498 0.063zM13.398 5.825c0.040 0.020 0.113 0.082 0.162 0.143l0.090 0.105v1.43l-0.060 0.082c-0.033 0.045-0.098 0.11-0.143 0.143-0.080 0.058-0.098 0.060-0.508 0.060-0.485 0-0.527-0.013-0.665-0.202l-0.075-0.105v-1.36l0.070-0.105c0.037-0.058 0.107-0.13 0.155-0.165 0.085-0.058 0.105-0.060 0.495-0.063 0.313 0 0.425 0.008 0.477 0.037zM16.517 5.86c0.055 0.040 0.125 0.112 0.155 0.16 0.050 0.082 0.052 0.115 0.052 0.765 0 0.763 0 0.76-0.18 0.912l-0.105 0.090h-0.9l-0.265-0.275v-0.705c0-0.8 0-0.798 0.203-0.945l0.105-0.075h0.835l0.1 0.072zM19.617 5.86c0.055 0.040 0.125 0.112 0.155 0.16 0.050 0.082 0.052 0.115 0.052 0.765 0 0.763 0 0.76-0.18 0.912l-0.105 0.090h-0.9l-0.265-0.275v-0.702c0-0.675 0.003-0.708 0.052-0.79 0.030-0.048 0.1-0.12 0.155-0.16l0.1-0.072h0.835l0.1 0.072zM22.698 5.825c0.040 0.020 0.113 0.082 0.163 0.143l0.090 0.105v1.43l-0.060 0.082c-0.032 0.045-0.098 0.11-0.142 0.143-0.080 0.058-0.098 0.060-0.508 0.060-0.485 0-0.527-0.013-0.665-0.202l-0.075-0.105v-1.37l0.063-0.093c0.035-0.050 0.105-0.122 0.155-0.162 0.090-0.067 0.093-0.067 0.5-0.067 0.313 0 0.427 0.010 0.48 0.037zM25.723 5.825c0.040 0.020 0.113 0.082 0.163 0.143l0.090 0.105v1.43l-0.060 0.082c-0.032 0.045-0.098 0.11-0.142 0.143-0.080 0.058-0.098 0.060-0.508 0.060-0.485 0-0.527-0.013-0.665-0.202l-0.075-0.105v-1.357l0.065-0.098c0.035-0.055 0.105-0.13 0.155-0.168 0.093-0.067 0.098-0.067 0.5-0.070 0.313 0 0.425 0.008 0.477 0.037zM7.205 24.040c0.040 0.030 0.107 0.1 0.147 0.155l0.072 0.1v1.358l-0.065 0.102c-0.037 0.055-0.112 0.13-0.168 0.168-0.1 0.063-0.112 0.065-0.508 0.065h-0.402l-0.1-0.073c-0.213-0.152-0.207-0.133-0.207-0.927 0-0.675 0.003-0.71 0.053-0.793 0.030-0.045 0.093-0.113 0.143-0.145 0.088-0.060 0.105-0.063 0.525-0.063 0.402 0 0.44 0.005 0.51 0.052zM10.38 24.040c0.040 0.030 0.107 0.1 0.148 0.155l0.072 0.1v1.358l-0.065 0.102c-0.037 0.055-0.113 0.13-0.168 0.168-0.1 0.063-0.113 0.065-0.508 0.065h-0.402l-0.1-0.073c-0.213-0.152-0.207-0.133-0.207-0.927 0-0.675 0.002-0.71 0.053-0.793 0.030-0.045 0.092-0.113 0.143-0.145 0.088-0.060 0.105-0.063 0.525-0.063 0.402 0 0.44 0.005 0.51 0.052zM13.455 24.050c0.050 0.032 0.113 0.1 0.143 0.145 0.050 0.082 0.053 0.117 0.053 0.793 0 0.795 0.005 0.775-0.207 0.927l-0.1 0.073h-0.402c-0.395 0-0.408-0.003-0.508-0.065-0.055-0.038-0.13-0.113-0.168-0.168l-0.065-0.102v-0.672c0-0.755 0-0.758 0.195-0.918l0.092-0.075h0.438c0.425 0 0.44 0.003 0.53 0.063zM16.545 24.078c0.18 0.152 0.18 0.15 0.18 0.913v0.683l-0.065 0.093c-0.035 0.052-0.108 0.122-0.163 0.157-0.093 0.063-0.108 0.065-0.5 0.065-0.46 0-0.512-0.017-0.65-0.207l-0.072-0.1v-1.407l0.060-0.082c0.033-0.045 0.098-0.11 0.143-0.142 0.080-0.058 0.095-0.060 0.523-0.060h0.44l0.105 0.090zM19.652 24.080c0.172 0.157 0.172 0.152 0.172 0.91 0 0.65-0.003 0.683-0.052 0.765-0.030 0.047-0.1 0.12-0.155 0.16l-0.1 0.073h-0.413c-0.468 0-0.52-0.015-0.657-0.207l-0.073-0.1v-1.398l0.067-0.093c0.14-0.195 0.165-0.203 0.663-0.203h0.445l0.102 0.093zM22.747 24.047c0.045 0.032 0.11 0.098 0.142 0.142l0.060 0.082v0.7c0 0.795 0 0.793-0.203 0.94l-0.105 0.075h-0.402c-0.392 0-0.407-0.003-0.503-0.065-0.055-0.035-0.13-0.108-0.168-0.16l-0.070-0.095v-0.68c0-0.76 0-0.758 0.18-0.91l0.105-0.090h0.44c0.427 0 0.442 0.003 0.523 0.060zM25.78 24.050c0.050 0.032 0.113 0.1 0.142 0.145 0.050 0.082 0.052 0.117 0.052 0.797v0.71l-0.090 0.105c-0.145 0.17-0.18 0.18-0.63 0.18-0.385 0-0.398-0.003-0.497-0.065-0.055-0.038-0.13-0.113-0.168-0.168l-0.065-0.102v-0.672c0-0.755 0-0.758 0.195-0.918l0.093-0.075h0.438c0.425 0 0.44 0.003 0.53 0.063z"></path>
</symbol>
<symbol id="format_137" viewBox="0 0 32 32">
<path fill="#000" style="fill: var(--color1, #000)" d="M0.026 3.721v24.561h4.724v-3.148h20.023v3.148h7.111v-24.561h-7.103v2.689h-20.023v-2.689h-4.732zM2.125 6.678h1.966c0.255 0 0.462 0.206 0.462 0.462v0.9c0 0.255-0.206 0.462-0.462 0.462h-1.966c-0.255 0-0.462-0.206-0.462-0.462v-0.9c0-0.255 0.206-0.462 0.462-0.462zM27.744 6.678h1.966c0.255 0 0.462 0.206 0.462 0.462v0.9c0 0.255-0.206 0.462-0.462 0.462h-1.966c-0.255 0-0.462-0.206-0.462-0.462v-0.9c0-0.255 0.206-0.462 0.462-0.462zM4.758 8.724h20.023v14.553h-20.023v-14.553zM2.125 12.148h1.966c0.255 0 0.462 0.206 0.462 0.462v0.9c0 0.255-0.206 0.462-0.462 0.462h-1.966c-0.255 0-0.462-0.206-0.462-0.462v-0.9c0-0.255 0.206-0.462 0.462-0.462zM27.744 12.148h1.966c0.255 0 0.462 0.206 0.462 0.462v0.9c0 0.255-0.206 0.462-0.462 0.462h-1.966c-0.255 0-0.462-0.206-0.462-0.462v-0.9c0-0.255 0.206-0.462 0.462-0.462zM2.125 17.527h1.966c0.255 0 0.462 0.206 0.462 0.462v0.9c0 0.255-0.206 0.462-0.462 0.462h-1.966c-0.255 0-0.462-0.206-0.462-0.462v-0.9c0-0.255 0.206-0.462 0.462-0.462zM27.744 17.527h1.966c0.255 0 0.462 0.206 0.462 0.462v0.9c0 0.255-0.206 0.462-0.462 0.462h-1.966c-0.255 0-0.462-0.206-0.462-0.462v-0.9c0-0.255 0.206-0.462 0.462-0.462zM2.125 23.362h1.966c0.255 0 0.462 0.206 0.462 0.462v0.9c0 0.255-0.206 0.462-0.462 0.462h-1.966c-0.255 0-0.462-0.206-0.462-0.462v-0.9c0-0.255 0.206-0.462 0.462-0.462zM27.744 23.362h1.966c0.255 0 0.462 0.206 0.462 0.462v0.9c0 0.255-0.206 0.462-0.462 0.462h-1.966c-0.255 0-0.462-0.206-0.462-0.462v-0.9c0-0.255 0.206-0.462 0.462-0.462z"></path>
<path fill="#fff" style="fill: var(--color2, #fff)" d="M25.616 21.263c-0.017 0.315-0.098 6.026-0.1 7.005l-0.295 0.017c-0.003-0.442-0.050-0.733-0.125-1.227-0.039-0.254 0.086-0.328 0.095-0.638 0.014-0.497-0.055-1.276-0.104-1.92-0.011-0.142 0.181-0.464 0.181-0.604-0-0.161-0.196-0.531-0.196-0.683 0-0.106 0.179-0.226 0.178-0.326-0.002-0.308-0.072-0.794-0.081-1.015-0.003-0.074-0.127-0.602-0.102-1.264 0.007-0.195 0.205-0.299 0.2-0.535-0.004-0.18-0.17-0.371-0.173-0.572-0.002-0.131 0.125-0.283 0.121-0.422-0.006-0.214-0.175-0.437-0.181-0.668-0.004-0.165 0.089-0.349 0.084-0.521-0.007-0.228-0.192-0.445-0.196-0.684-0.003-0.176 0.237-0.339 0.232-0.52-0.006-0.224-0.271-0.403-0.275-0.635-0.003-0.146 0.19-0.292 0.188-0.441-0.003-0.146-0.168-0.504-0.17-0.651-0.002-0.157 0.239-0.315 0.237-0.473-0.002-0.141-0.233-0.445-0.235-0.586-0.002-0.152 0.207-0.239 0.205-0.391-0.003-0.185-0.234-0.451-0.236-0.635-0.002-0.131 0.257-0.424 0.255-0.553-0.002-0.148-0.248-0.344-0.25-0.489-0.002-0.181 0.24-0.36 0.237-0.537-0.002-0.138-0.248-0.387-0.249-0.521-0.001-0.127 0.241-0.334 0.24-0.457-0.001-0.111-0.214-0.416-0.216-0.523-0.003-0.261 0.157-0.446 0.154-0.682-0.002-0.117-0.166-0.247-0.167-0.357-0.001-0.131 0.209-0.306 0.207-0.427-0.003-0.214-0.217-0.459-0.218-0.634-0.002-0.202 0.224-0.409 0.222-0.551-0.004-0.256-0.201-0.459-0.2-0.489 0.006-0.315 0.156-0.344 0.186-0.728 0.028-0.368 0.111-1.133 0.121-2.206l0.312-0.008c0.012 0.679 0.012 2.425 0.067 2.701 0.052 0.26 0.21 0.506 0.206 0.569-0.001 0.021-0.22 0.169-0.235 0.392-0.004 0.058 0.288 0.066 0.29 0.514 0.001 0.168-0.293 0.36-0.293 0.573-0.001 0.157 0.276 0.39 0.276 0.568 0 0.126-0.277 0.274-0.277 0.409-0 0.142 0.358 0.305 0.358 0.456-0 0.214-0.278 0.437-0.279 0.667-0.001 0.17 0.259 0.23 0.258 0.407-0.001 0.145-0.213 0.308-0.214 0.457-0.001 0.192 0.176 0.42 0.175 0.617-0.001 0.167-0.279 0.336-0.281 0.507-0.001 0.151 0.34 0.254 0.339 0.407-0.001 0.173-0.36 0.363-0.362 0.537-0.002 0.206 0.257 0.429 0.256 0.635-0.001 0.169-0.23 0.304-0.231 0.472-0.002 0.224 0.339 0.463 0.339 0.684-0 0.126-0.326 0.25-0.327 0.374-0.001 0.164 0.323 0.327 0.323 0.488-0.001 0.187-0.361 0.372-0.363 0.554-0.002 0.149 0.24 0.491 0.24 0.635-0.001 0.238-0.232 0.466-0.235 0.684-0.003 0.181 0.192 0.372 0.192 0.538 0.001 0.28-0.213 0.65-0.217 0.881-0.018 0.867 0.127 1.541 0.112 1.823z"></path>
<path fill="#fff" style="fill: var(--color2, #fff)" d="M26.946 21.263c-0.017 0.315-0.098 6.026-0.1 7.005l-0.295 0.017c-0.003-0.442-0.050-0.733-0.125-1.227-0.039-0.254 0.086-0.328 0.095-0.638 0.014-0.497-0.055-1.276-0.104-1.92-0.011-0.142 0.181-0.464 0.181-0.604-0-0.161-0.196-0.531-0.196-0.683 0-0.106 0.179-0.226 0.178-0.326-0.002-0.308-0.072-0.794-0.081-1.015-0.003-0.074-0.127-0.602-0.102-1.264 0.007-0.195 0.205-0.299 0.2-0.535-0.004-0.18-0.17-0.371-0.173-0.572-0.002-0.131 0.125-0.283 0.121-0.422-0.006-0.214-0.175-0.437-0.181-0.668-0.004-0.165 0.089-0.349 0.084-0.521-0.007-0.228-0.192-0.445-0.196-0.684-0.003-0.176 0.237-0.339 0.232-0.52-0.006-0.224-0.271-0.403-0.275-0.635-0.003-0.146 0.19-0.292 0.188-0.441-0.003-0.146-0.168-0.504-0.17-0.651-0.002-0.157 0.239-0.315 0.237-0.473-0.002-0.141-0.233-0.445-0.235-0.586-0.002-0.152 0.207-0.239 0.205-0.391-0.003-0.185-0.234-0.451-0.236-0.635-0.002-0.131 0.257-0.424 0.255-0.553-0.002-0.148-0.248-0.344-0.25-0.489-0.002-0.181 0.24-0.36 0.237-0.537-0.002-0.138-0.248-0.387-0.249-0.521-0.001-0.127 0.241-0.334 0.24-0.457-0.001-0.111-0.214-0.416-0.216-0.523-0.003-0.261 0.157-0.446 0.154-0.682-0.002-0.117-0.166-0.247-0.167-0.357-0.001-0.131 0.209-0.306 0.207-0.427-0.003-0.214-0.217-0.459-0.218-0.634-0.002-0.202 0.224-0.409 0.222-0.551-0.004-0.256-0.201-0.459-0.2-0.489 0.006-0.315 0.156-0.344 0.186-0.728 0.028-0.368 0.111-1.133 0.121-2.206l0.312-0.008c0.012 0.679 0.012 2.425 0.067 2.701 0.052 0.26 0.21 0.506 0.206 0.569-0.001 0.021-0.22 0.169-0.235 0.392-0.004 0.058 0.288 0.066 0.29 0.514 0.001 0.168-0.293 0.36-0.293 0.573-0.001 0.157 0.276 0.39 0.276 0.568 0 0.126-0.277 0.274-0.277 0.409-0 0.142 0.358 0.305 0.358 0.456-0 0.214-0.278 0.437-0.279 0.667-0.001 0.17 0.259 0.23 0.258 0.407-0.001 0.145-0.213 0.308-0.214 0.457-0.001 0.192 0.176 0.42 0.175 0.617-0.001 0.167-0.279 0.336-0.281 0.507-0.001 0.151 0.34 0.254 0.339 0.407-0.001 0.173-0.36 0.363-0.362 0.537-0.002 0.206 0.257 0.429 0.256 0.635-0.001 0.169-0.23 0.304-0.231 0.472-0.002 0.224 0.339 0.463 0.339 0.684-0 0.126-0.326 0.25-0.327 0.374-0.001 0.164 0.323 0.327 0.323 0.488-0.001 0.187-0.361 0.372-0.363 0.554-0.002 0.149 0.24 0.491 0.24 0.635-0.001 0.238-0.232 0.466-0.235 0.684-0.003 0.181 0.192 0.372 0.192 0.538 0.001 0.28-0.213 0.65-0.217 0.881-0.018 0.867 0.127 1.541 0.112 1.823z"></path>
</symbol>
</defs>
</svg>
