<?xml version="1.0" standalone="no"?>
<!DOCTYPE svg PUBLIC "-//W3C//DTD SVG 20010904//EN"
 "http://www.w3.org/TR/2001/REC-SVG-20010904/DTD/svg10.dtd">
<svg version="1.0" xmlns="http://www.w3.org/2000/svg"
 width="1280.000000pt" height="640.000000pt" viewBox="0 0 1280.000000 640.000000"
 preserveAspectRatio="xMidYMid meet">
<metadata>
Created by potrace 1.15, written by Peter Selinger 2001-2017
</metadata>
<g transform="translate(0.000000,640.000000) scale(0.100000,-0.100000)"
fill="#000000" stroke="none">
<path d="M2967 6350 c-537 -52 -1042 -255 -1417 -569 -47 -40 -123 -92 -170
-118 -239 -130 -425 -268 -606 -448 -72 -71 -161 -168 -198 -215 -672 -850
-762 -2052 -232 -3105 183 -362 378 -628 677 -922 915 -899 2255 -1179 3339
-698 333 147 679 407 900 676 30 37 93 95 140 130 112 85 309 277 404 393 164
202 313 459 407 704 23 61 48 112 55 112 22 0 239 -78 484 -175 316 -124 476
-178 636 -212 116 -24 150 -27 339 -27 197 -1 217 1 318 26 228 58 336 104
850 362 374 188 491 237 687 289 103 27 132 30 270 31 178 1 255 -15 417 -85
133 -58 232 -117 568 -338 338 -222 411 -267 575 -345 238 -114 460 -167 698
-165 76 1 148 4 161 8 16 4 56 49 113 126 100 135 411 596 406 601 -2 1 -44
-12 -93 -31 -123 -46 -219 -59 -368 -52 -314 15 -591 140 -1231 556 -416 270
-615 383 -809 458 -252 97 -495 107 -785 32 -223 -57 -404 -140 -850 -387
-666 -369 -838 -392 -1572 -202 -188 48 -541 135 -678 165 -23 6 -23 6 -16
128 8 151 -9 406 -41 592 -77 452 -239 857 -500 1250 -519 781 -1328 1301
-2230 1435 -159 23 -504 34 -648 20z m1541 -860 c246 -70 465 -260 573 -496
32 -69 69 -203 69 -246 0 -27 -3 -26 -52 34 -86 105 -356 368 -473 461 -60 48
-171 129 -245 179 -74 50 -137 93 -140 96 -13 13 203 -9 268 -28z m-2773 -334
c200 -30 348 -106 498 -254 60 -58 167 -200 167 -221 0 -4 -25 -19 -56 -34
-146 -72 -341 -231 -465 -379 l-47 -57 -62 62 c-115 115 -197 266 -236 435
-29 121 -10 357 36 441 13 25 39 26 165 7z m2135 -56 c389 -62 702 -391 751
-792 11 -89 3 -188 -23 -292 -15 -59 -30 -66 -138 -66 l-78 0 -35 63 c-91 162
-268 361 -428 482 -84 63 -243 160 -291 178 -10 3 -20 22 -24 43 -10 54 3 252
20 306 28 88 28 88 109 88 40 0 101 -5 137 -10z m860 -2027 c106 -30 292 -127
273 -143 -4 -4 -39 -15 -78 -25 -38 -10 -129 -40 -202 -66 -72 -27 -133 -49
-135 -49 -2 0 -1 30 4 68 4 37 10 106 14 154 l6 87 31 -6 c18 -3 57 -12 87
-20z m-3288 1 l45 -6 12 -107 c39 -341 163 -658 358 -915 35 -46 35 -48 12
-41 -13 4 -55 23 -94 42 -252 126 -432 365 -480 638 -18 107 -19 176 -1 276
22 124 29 129 148 113z m-642 -335 c0 -5 22 -65 49 -133 152 -379 386 -742
673 -1042 43 -45 78 -85 78 -89 0 -4 -39 -5 -86 -1 -388 32 -714 303 -812 677
-37 141 -37 294 0 419 17 61 80 190 89 184 5 -3 9 -10 9 -15z m4583 -466 c7
-69 5 -97 -15 -210 -10 -61 -11 -63 -47 -70 -59 -12 -221 -6 -294 11 -85 20
-198 66 -256 106 -44 29 -45 29 -20 39 228 89 345 127 509 165 58 14 108 25
111 25 3 1 9 -29 12 -66z m-980 -376 c35 -86 57 -201 57 -291 l0 -75 -56 19
c-88 31 -204 97 -282 161 -40 33 -72 64 -72 69 0 14 309 191 321 184 4 -2 18
-32 32 -67z m-579 -409 c67 -136 88 -226 89 -378 0 -70 -5 -143 -11 -167 -12
-41 -13 -42 -69 -49 -223 -28 -502 82 -679 267 -69 73 -175 225 -174 251 0 2
62 4 138 5 201 2 395 46 567 128 39 18 75 34 82 34 6 1 32 -41 57 -91z m-1326
-637 c161 -81 461 -184 672 -231 113 -25 353 -60 415 -60 80 0 84 -12 19 -55
-127 -85 -267 -121 -437 -112 -214 11 -394 90 -558 245 -79 74 -200 242 -175
242 4 0 32 -13 64 -29z"/>
</g>
</svg>
